#!OML:ASF F:\VICON\USERDATA\INSTALL\rory3\rory3.ASF
:FULLY-SPECIFIED
:DEGREES
27
root 0.8312455292225209 18.05219304862257 -3.356017852563115 -4.38572188507659 -3.276183129182222 1.2699338279674897
lfemur -5.727351168367718 -3.0047347678591896 -26.25818344871316
ltibia 27.441054900136493
lfoot -10.838513667608536 4.814766515193622
ltoes -4.5371346370662
rfemur -21.720245946469454 -2.988662375771975 22.38246763607733
rtibia 72.99440834752113
rfoot -3.6371991244155613 -5.326759995092921
rtoes 8.415116409696667
lowerback 10.698640224241215 0.4338065793968628 -1.3003577050854516
upperback 0.6860641782042816 1.5001486095220395 0.30026809166563484
thorax -5.06132332538395 0.5099783234728821 1.4239271459343774
lowerneck -16.474175951593413 -2.9422091715552363 -1.7870797589592007
upperneck 21.426102081303203 -3.615833140475839 0.34982839894479273
head 9.50207346443712 -1.8293476480685342 -0.03362351033022526
lclavicle -1.9521178895993603e-15 9.078032564836504e-16
lhumerus -32.57817644027422 2.35955931162034 82.65962599451579
lradius 19.153862651424383
lwrist 2.877746099864973
lhand -27.168344398074638 22.614999990516093
lfingers 7.12502
lthumb -0.44970918852700603 52.81995196914229
rclavicle -1.95347388644892e-15 9.065543972639228e-16
rhumerus -28.904958348293952 -21.617272241209186 -79.28253986267018
rradius 27.76289600088531
rwrist 4.071760809593243
rhand -17.477630252150703 23.352251163919483
rfingers 7.12502
rthumb 8.734186197959005 -6.707788946019507
28
root 0.8191475341133102 18.04538369842679 -2.2993895926669 -4.012926972909476 -2.1265798023195623 1.5166404564964995
lfemur -3.4498654287743458 -2.9736560721768277 -26.928629538974782
ltibia 26.48937867564459
lfoot -10.660806475025277 4.985366672671203
ltoes -4.009394458119934
rfemur -24.766398708618286 -2.9250704972979715 22.240284516476894
rtibia 68.84462698587383
rfoot -7.188578325188994 -5.768015214268766
rtoes 6.810285778775048
lowerback 10.735240075061606 -0.021508422632093516 -1.9615869344070733
upperback 0.7117663832281433 0.552090681388545 0.3407156974663046
thorax -5.0339388579176445 0.1757750404463722 1.942398319681467
lowerneck -16.75708234624673 -2.8602151838133767 -1.7190940201709664
upperneck 21.242886588584895 -3.6291002582415772 0.33731110179459745
head 9.534951675466152 -1.8296755608318032 -0.07635434297232105
lclavicle -1.9521176966164946e-15 9.078034342188944e-16
lhumerus -30.434624034846227 0.04832846634595478 83.28724666809286
lradius 19.72319889991855
lwrist 3.4802395612356327
lhand -27.179701469147318 22.605518054729487
lfingers 7.12502
lthumb -0.4269834224475373 52.94262142313538
rclavicle -1.953473891301567e-15 9.065543927946844e-16
rhumerus -29.084222930683545 -21.384980163636254 -79.1619581469319
rradius 27.734723051837896
rwrist 3.6402507248644893
rhand -17.353982729703915 23.366274970244145
rfingers 7.12502
rthumb 8.807882974083352 -6.645254695052334
29
root 0.7891503401885502 18.05999065051775 -1.5584033020826276 -3.353951364451956 -1.0149904913652683 1.549270774272034
lfemur -1.0652578143842897 -2.9951914935948 -27.500335300007137
ltibia 23.531447481980933
lfoot -10.473746587906234 4.909783047448025
ltoes -4.5443221539727325
rfemur -27.455866680302798 -2.2045274427555634 21.831032228252543
rtibia 61.83433423391166
rfoot -8.813279857549649 -7.649955718701926
rtoes 4.390344806048741
lowerback 10.574540500975248 -0.3548353693823115 -2.322441458346016
upperback 0.7623558801456165 0.07793761786432474 0.7028951607824603
thorax -4.891652555688649 0.01442449849161831 2.5469313945314767
lowerneck -16.552432824301718 -2.855595591290095 -1.8602526453990407
upperneck 21.10307201587664 -3.725859679474184 0.43482600905463564
head 9.501253470237298 -1.8559503014692114 -0.044206129298028
lclavicle -1.9521179771861156e-15 9.078031758171454e-16
lhumerus -28.56870038181533 -1.8716972513448396 83.35362349815176
lradius 20.474752339683697
lwrist 4.006871940074186
lhand -27.151309684603813 22.90218510892493
lfingers 7.12502
lthumb -0.4723362126933535 53.095537953754935
rclavicle -1.953474386617057e-15 9.065539366141879e-16
rhumerus -29.767106953133833 -20.86486544912902 -78.8581283477373
rradius 27.287717747096472
rwrist 3.783860913266858
rhand -17.36965370096245 23.238076383551096
rfingers 7.12502
rthumb 8.716713673927243 -6.979677547380826
30
root 0.7418041625743426 18.07711217266411 -1.0429148630847678 -2.5284234238924745 0.08741978546238771 1.4992853520446792
lfemur 1.8673444292894779 -2.8190562081470896 -27.294107773733018
ltibia 19.77495238370927
lfoot -10.36087018292633 4.5385389049931835
ltoes -4.908213842108229
rfemur -28.51942857434898 -0.9263186299814894 21.16441015234614
rtibia 51.88263460396132
rfoot -8.311840267514174 -10.308870414438744
rtoes 2.8168024290902274
lowerback 10.199955435849814 -0.7358851672280359 -3.074133640213213
upperback 0.7203978526341217 -0.6849758276791897 0.7158729944964358
thorax -4.843850922703497 -0.28585339826367495 2.889519012216996
lowerneck -16.746011921733903 -2.843707120019636 -1.9662755454849496
upperneck 21.0104051561438 -3.8449931709690652 0.4938511552318249
head 9.534266342690946 -1.879858965657256 -0.07455024726737136
lclavicle -1.9521171498700324e-15 9.078039377667902e-16
lhumerus -26.336684702792883 -3.3536352755603334 83.39094980148879
lradius 21.58096695212986
lwrist 4.376145033217177
lhand -27.159351578168078 22.992135382910625
lfingers 7.12502
lthumb -0.5298035920879443 53.11220459584332
rclavicle -1.9534741394664202e-15 9.065541642373947e-16
rhumerus -30.322821133010887 -21.035519791372806 -78.47944083666609
rradius 26.469995632918597
rwrist 4.2705273779719395
rhand -17.47103847639401 23.092836865018338
rfingers 7.12502
rthumb 8.608481847687806 -7.112191184939944
31
root 0.68359092182332 18.069164543230958 -1.013532210577921 -1.66110541601635 1.1631861331948397 1.5720694547008685
lfemur 5.549761999537674 -2.3641182859821606 -27.24239257614795
ltibia 15.297360217399461
lfoot -10.018014653962473 3.7776107986118515
ltoes -4.225939882603364
rfemur -28.40197041038074 1.0101966817281451 19.856862363456635
rtibia 39.63770964759446
rfoot -7.833276403914661 -13.306142071889628
rtoes 2.4124634073119204
lowerback 9.795689837562945 -1.031835791435845 -3.830769134757885
upperback 0.7053777921230102 -1.0393247891686332 0.9271803424792432
thorax -4.719898521629514 -0.4243475461089057 3.416725979386334
lowerneck -16.676837673403753 -2.8343516960329174 -2.0162215657160045
upperneck 20.976561885167186 -3.973523446588106 0.5895190189617032
head 9.529996098667198 -1.8922310603204942 -0.04825417330819046
lclavicle -1.9521166699827216e-15 9.078043797380916e-16
lhumerus -24.245248340906752 -4.785254409765567 83.2598118225708
lradius 22.79413352745612
lwrist 4.842354417686736
lhand -27.18034132165993 23.27583990332092
lfingers 7.12502
lthumb -0.5013603479097076 53.47103973288071
rclavicle -1.9534740497102867e-15 9.065542469018751e-16
rhumerus -30.944563391260683 -21.707669051716497 -77.83713087144821
rradius 25.42525284213949
rwrist 4.968475245390141
rhand -17.691385330397985 22.7652331175133
rfingers 7.12502
rthumb 8.462475712306235 -7.263269452400038
32
root 0.6281644594951838 18.025787621968906 -0.17534819240839816 -1.0029833481919517 2.289892644288264 2.1049301311178987
lfemur 9.281654179059991 -2.4077958631125056 -27.218981530874785
ltibia 12.025298601264403
lfoot -9.178948362641883 2.619061768861557
ltoes -3.609287182152603
rfemur -27.17803209785785 4.2292842487874225 17.857920598615486
rtibia 26.986790419011157
rfoot -8.843405181506132 -16.210924575882217
rtoes 1.8516607298840009
lowerback 9.602963039238823 -1.2867154583884703 -4.642677434605841
upperback 0.7267544463649267 -1.6245579112480963 0.7668153757602948
thorax -4.699720503520732 -0.639430114097985 3.5146021144725554
lowerneck -16.67007416957147 -2.8246586599957 -2.012977927344007
upperneck 21.061056959701702 -4.086483713024351 0.7113735716279803
head 9.552377308356785 -1.9122137251157292 -0.02998601900940806
lclavicle -1.952116549268354e-15 9.078044909147884e-16
lhumerus -22.447635638297534 -5.795592398691357 83.06627307685542
lradius 24.06392330229184
lwrist 5.358333351307029
lhand -27.17522208881256 23.36518903064638
lfingers 7.12502
lthumb -0.4391943231639693 53.70513709132515
rclavicle -1.9534738517201367e-15 9.065544292487767e-16
rhumerus -31.249083502941716 -22.717607062329282 -77.25143575205183
rradius 24.29533223286462
rwrist 6.096953343255723
rhand -17.82267031980347 22.301554926421897
rfingers 7.12502
rthumb 8.394369115927411 -7.57674976758599
33
root 0.5599582998485364 17.953403203432014 0.4378272492063875 -0.6987105324593823 3.0481778416833163 2.5367571880549264
lfemur 12.290380864767641 -3.396400586553713 -27.600854506257285
ltibia 12.42228192385791
lfoot -8.108242577933686 1.2669513718924434
ltoes -2.961120434906667
rfemur -26.603936273507877 6.866125601285619 16.212429495354804
rtibia 17.55801047614801
rfoot -10.26232674666166 -16.902675700400998
rtoes 0.7935805877272517
lowerback 9.512727608052993 -1.4151909632812876 -5.170811609531506
upperback 0.6838687678369055 -1.7920643409728485 0.9133150377966508
thorax -4.643677767908321 -0.6827090172649382 3.6950200382673293
lowerneck -16.50197588645492 -2.865420905432375 -2.0437770114212976
upperneck 21.148754420370388 -4.203936192383971 0.786849562911469
head 9.590530718907127 -1.9315428355659288 -0.006130516570560712
lclavicle -1.9521162942900813e-15 9.078047257471678e-16
lhumerus -21.291073145802017 -6.236508610473733 82.90776885039094
lradius 25.254595384048727
lwrist 6.019618012217675
lhand -27.145819061336834 23.550335935171645
lfingers 7.12502
lthumb -0.41070451623823756 53.91235654006959
rclavicle -1.953474290000732e-15 9.065540255968346e-16
rhumerus -31.740574151894286 -23.582878284135518 -76.63903524631036
rradius 23.311977812277412
rwrist 7.773852272457236
rhand -17.863198022128675 22.221301559426507
rfingers 7.12502
rthumb 8.366712176812584 -7.5877262995476
